# xmcd
#
# Track frame offsets:
# 150
# 3924
# 18510
# 39444
# 57834
# 75096
# 88601
# 100091
# 119205
# 132585
# 147280
# 160399
# 179105
#
# Disc length: 2461 seconds
#
# Revision: 0
# Processed by: cddbd v1.4PL0 Copyright (c) Steve Scherf et al.
# Submitted via: Audion 3.0.2 (http://www.panic.com/audion/)
#
DISCID=aa099b0d
DTITLE=Kelly Emerson - Big Daddy's "Barn Burner Blues"
DYEAR=1900
DGENRE=
TTITLE0=Intro
TTITLE1=Lazy River Rag
TTITLE2=Devil of an Angel
TTITLE3=My Hometown
TTITLE4=Spanish Grass
TTITLE5=Country Summer
TTITLE6=Buzz Saw
TTITLE7=Big Daddy's "Barn Burner Blues"
TTITLE8=Gun Shy
TTITLE9=Dixie Redwing
TTITLE10=Norweigan Wood
TTITLE11=Amazing Grace
TTITLE12=Banjo Farewell
EXTD=
EXTT0=
EXTT1=
EXTT2=
EXTT3=
EXTT4=
EXTT5=
EXTT6=
EXTT7=
EXTT8=
EXTT9=
EXTT10=
EXTT11=
EXTT12=
PLAYORDER=
